<?xml version="1.0" encoding="UTF-8"?>
<svg version="1.1" xmlns="http://www.w3.org/2000/svg" width="512" height="512">
<path d="M0 0 C14.19 0 28.38 0 43 0 C43 14.19 43 28.38 43 43 C85.24 43 127.48 43 171 43 C171 28.81 171 14.62 171 0 C185.19 0 199.38 0 214 0 C214 14.19 214 28.38 214 43 C223.714375 42.93039063 223.714375 42.93039063 233.625 42.859375 C237.73569318 42.8389291 241.84632339 42.81967278 245.95703125 42.8046875 C252.47718376 42.78080587 258.99711089 42.75259881 265.51708984 42.69824219 C270.77555812 42.65467864 276.03378458 42.63084051 281.29241943 42.62049103 C283.29542851 42.61311854 285.29842484 42.59872178 287.30133057 42.57707977 C290.11393501 42.54790622 292.92554907 42.54404983 295.73828125 42.54589844 C296.97151375 42.52432678 296.97151375 42.52432678 298.22966003 42.50231934 C305.44398622 42.55339421 310.64263905 44.69502485 315.8125 49.75 C320.0656903 56.06902559 321.4499193 61.85992916 321.36076355 69.4029541 C321.36332682 70.21016576 321.3658901 71.01737742 321.36853105 71.84905005 C321.37344212 74.53303848 321.35702069 77.21645469 321.34057617 79.90039062 C321.33972932 81.83258043 321.34020618 83.7647712 321.34190369 85.69696045 C321.34276279 90.92780996 321.32515065 96.15845218 321.30418181 101.38925362 C321.28540095 106.86117623 321.28366346 112.33310384 321.28010559 117.80505371 C321.27078928 128.16046185 321.24618105 138.51577473 321.21605712 148.87114096 C321.18250027 160.66310805 321.16602386 172.45507974 321.15097082 184.24708271 C321.11963116 208.49812008 321.06462419 232.74902691 321 257 C306.48 257 291.96 257 277 257 C277 200.57 277 144.14 277 86 C164.8 86 52.6 86 -63 86 C-63 170.48 -63 254.96 -63 342 C-6.9 342 49.2 342 107 342 C107 356.19 107 370.38 107 385 C81.32216814 385.09030728 55.64446494 385.16398617 29.96651459 385.20724869 C18.04369927 385.22787047 6.12098966 385.2559839 -5.80175781 385.30175781 C-16.1940949 385.34163713 -26.58635544 385.3674356 -36.97876692 385.37635398 C-42.48106329 385.38156683 -47.98314066 385.39381123 -53.48536682 385.42292023 C-58.66621023 385.45010645 -63.84674477 385.45843842 -69.02765274 385.45243073 C-70.92712712 385.45352952 -72.82661202 385.46146419 -74.72602463 385.4768219 C-77.32476558 385.49680016 -79.92234896 385.49191093 -82.52111816 385.48101807 C-83.2682232 385.49266943 -84.01532823 385.5043208 -84.7850728 385.51632524 C-91.71164258 385.4381487 -96.86901803 383.08362682 -101.8125 378.25 C-107.06750408 370.44256537 -107.43520166 363.66446919 -107.38768005 354.48831177 C-107.39306559 353.238965 -107.39845113 351.98961824 -107.40399987 350.70241249 C-107.41841243 347.25083629 -107.414223 343.79949972 -107.40683305 340.34791064 C-107.40209322 336.61910452 -107.41461845 332.89034964 -107.42485046 329.16156006 C-107.44202813 321.86269896 -107.44288059 314.56392399 -107.43763756 307.26504792 C-107.43359254 301.33091414 -107.43504336 295.39680576 -107.44038582 289.46267319 C-107.44113424 288.6173838 -107.44188266 287.77209441 -107.44265376 286.90119018 C-107.44418528 285.18385776 -107.44572363 283.46652535 -107.44726873 281.74919294 C-107.46099015 265.65179155 -107.4555587 249.55443878 -107.44408352 233.45703851 C-107.43415251 218.73997364 -107.44709014 204.02303452 -107.47101771 189.30598904 C-107.4954181 174.18384846 -107.50501421 159.06176642 -107.49836498 143.93960655 C-107.49487472 135.45394412 -107.49709201 126.96837838 -107.51461601 118.48273087 C-107.52934979 111.25874862 -107.52995817 104.03493114 -107.5125451 96.81095208 C-107.50404215 93.12761977 -107.50186795 89.44458165 -107.51719666 85.7612648 C-107.53363169 81.76249077 -107.51887519 77.76442422 -107.50120544 73.76565552 C-107.51081045 72.60961071 -107.52041546 71.45356591 -107.53031152 70.26248944 C-107.46055019 62.57933154 -106.59317138 54.98806478 -101.25000471 49.05767834 C-95.32857268 43.59180534 -89.89065773 42.70551207 -82.07885742 42.77294922 C-81.19055237 42.77265717 -80.30224731 42.77236511 -79.38702393 42.77206421 C-76.45973846 42.77345418 -73.53270959 42.78899977 -70.60546875 42.8046875 C-68.57237385 42.80841881 -66.53927715 42.81126523 -64.50617981 42.81326294 C-59.16158054 42.82089007 -53.8170904 42.84053073 -48.47253418 42.8626709 C-42.05646266 42.88675113 -35.6403546 42.89591468 -29.22425079 42.90757751 C-19.48275802 42.92695559 -9.74150458 42.96528468 0 43 C0 28.81 0 14.62 0 0 Z " fill="#000000" transform="translate(149,42)"/>
<path d="M0 0 C15.86964277 12.09815359 25.58246786 28.51449069 29.765625 47.875 C31.58849317 62.71314687 30.84872611 78.04987317 24.45703125 91.75 C23.11016508 95.1717681 22.92841939 95.80027437 24.15625 99.0546875 C26.11819357 101.21315603 28.08314127 103.21062175 30.1953125 105.2109375 C31.4273299 106.40990294 32.65909314 107.60912959 33.890625 108.80859375 C35.83979397 110.68927574 37.79279215 112.56571749 39.75097656 114.43701172 C41.63897183 116.24677514 43.51147432 118.07147875 45.3828125 119.8984375 C45.97542877 120.45583618 46.56804504 121.01323486 47.17861938 121.58752441 C48.80712891 123.18554688 48.80712891 123.18554688 51.15625 126.0546875 C50.85630277 129.20496706 49.71555321 130.8773227 47.53588867 133.0949707 C46.98829391 133.65847733 46.44069916 134.22198395 45.87651062 134.80256653 C45.2817543 135.39752426 44.68699799 135.99248199 44.07421875 136.60546875 C43.46363113 137.22366989 42.85304352 137.84187103 42.22395325 138.47880554 C40.93239917 139.78115373 39.63685773 141.079558 38.33764648 142.37426758 C36.34745504 144.36348427 34.37954947 146.37307472 32.41210938 148.38476562 C31.15494827 149.64713174 29.89652641 150.90824382 28.63671875 152.16796875 C28.04803513 152.77304764 27.4593515 153.37812653 26.85282898 154.00154114 C25.16479492 155.66137695 25.16479492 155.66137695 22.15625 158.0546875 C17.51022228 157.62140206 15.06618745 154.23426275 12.03515625 151.015625 C10.84090871 149.78345286 9.64623419 148.55169443 8.45117188 147.3203125 C6.57789996 145.37244453 4.7097199 143.42017269 2.84936523 141.45996094 C1.04938738 139.56954505 -0.76865516 137.69808236 -2.58984375 135.828125 C-3.14208115 135.23550873 -3.69431854 134.64289246 -4.26329041 134.03231812 C-6.00552765 132.1873953 -6.00552765 132.1873953 -8.84375 130.0546875 C-11.56094519 129.97901283 -11.56094519 129.97901283 -13.84375 131.0546875 C-14.68292969 131.35246094 -15.52210938 131.65023437 -16.38671875 131.95703125 C-18.13756614 132.64237033 -19.88758073 133.32984115 -21.63671875 134.01953125 C-41.10271724 140.30270981 -61.9968523 138.19101798 -80.21875 129.3046875 C-99.05828218 119.57945218 -112.31172091 103.16424362 -118.84375 83.0546875 C-124.14538939 62.6806738 -121.53307991 41.75750867 -111.76171875 23.27734375 C-108.8869349 18.44700428 -105.60302294 14.22273575 -101.84375 10.0546875 C-101.25207031 9.37019531 -100.66039062 8.68570312 -100.05078125 7.98046875 C-74.10172187 -20.18173002 -30.28486662 -20.71684557 0 0 Z M-69.21875 41.3671875 C-75.85165592 50.05403303 -76.96926828 58.19401625 -75.84375 69.0546875 C-73.99563407 77.19077181 -69.44725965 83.92865561 -62.53125 88.625 C-53.90805822 93.58900842 -44.80285589 94.63284539 -34.984375 92.40625 C-26.56530669 89.34714754 -20.79709525 84.29601662 -16.34375 76.5546875 C-12.40505619 67.96704362 -12.27333587 58.52341937 -15.40625 49.6171875 C-20.04900056 39.93006436 -26.86591313 34.82902631 -36.84375 31.0546875 C-48.71898298 27.81772883 -61.00601717 32.49413444 -69.21875 41.3671875 Z " fill="#000000" transform="translate(460.84375,353.9453125)"/>
<path d="M0 0 C3.86272994 1.28757665 4.08504907 2.4937655 5.93359375 6.046875 C6.49481934 7.11035156 7.05604492 8.17382812 7.63427734 9.26953125 C8.22934082 10.41808594 8.8244043 11.56664062 9.4375 12.75 C10.68640112 15.12110689 11.93719081 17.49108802 13.19140625 19.859375 C13.50734741 20.45778198 13.82328857 21.05618896 14.14880371 21.67272949 C17.73673772 28.44180331 21.56898886 35.06653308 25.44311523 41.67480469 C25.91305908 42.48336914 26.38300293 43.29193359 26.8671875 44.125 C27.28081543 44.82882813 27.69444336 45.53265625 28.12060547 46.2578125 C29 48 29 48 29 50 C29.69109863 50.12004395 30.38219727 50.24008789 31.09423828 50.36376953 C49.79210309 53.62477532 68.40435872 57.20420895 87 61 C85.28974534 64.66434951 83.24002076 66.9345589 80.3125 69.75 C76.62796019 73.30274445 73.23048193 76.99323026 69.88500977 80.85888672 C65.95138396 85.32694764 61.80239952 89.59838111 57.69726562 93.90820312 C56.68116211 94.98038086 56.68116211 94.98038086 55.64453125 96.07421875 C55.03971924 96.70932373 54.43490723 97.34442871 53.81176758 97.9987793 C53.21388428 98.65918213 52.61600098 99.31958496 52 100 C51.24581787 100.67087646 50.49163574 101.34175293 49.71459961 102.03295898 C46.97399992 106.77544908 48.17172885 111.12478371 48.921875 116.3984375 C49.06071106 117.50675934 49.19954712 118.61508118 49.34259033 119.75698853 C49.79046408 123.29944121 50.26914746 126.83688704 50.75 130.375 C51.21021592 133.90653136 51.66407143 137.4388039 52.11456299 140.97158813 C52.39685517 143.16844942 52.68590373 145.36445605 52.98260498 147.55941772 C53.67113192 152.75766578 54.17187331 157.75601597 54 163 C51.33150615 161.81649732 48.66528415 160.6282008 46 159.4375 C45.13874512 159.05489014 44.27749023 158.67228027 43.39013672 158.27807617 C38.18656218 155.94690704 33.0262026 153.54390204 27.90362549 151.04057312 C25.03273678 149.63793531 22.15519843 148.24918416 19.27783203 146.8598938 C17.84532111 146.16294995 16.41623621 145.45891873 14.99072266 144.74777222 C12.96299981 143.73701048 10.92468358 142.75132503 8.8828125 141.76953125 C7.70090332 141.18792236 6.51899414 140.60631348 5.30126953 140.00708008 C1.21787393 138.76140585 -0.15805791 139.24083993 -4 141 C-4.60208282 141.2690062 -5.20416565 141.53801239 -5.82449341 141.81517029 C-7.91081881 142.76054709 -9.97501938 143.74523936 -12.0390625 144.73828125 C-13.18222427 145.282248 -13.18222427 145.282248 -14.34848022 145.83720398 C-16.77556742 146.99235541 -19.20049665 148.15193628 -21.625 149.3125 C-31.66046414 154.11343525 -41.66011555 158.88113905 -52 163 C-51.61144082 154.39056688 -50.78027967 145.94037783 -49.5625 137.41015625 C-49.3052452 135.53590931 -49.04874371 133.66155884 -48.79296875 131.78710938 C-48.39950842 128.90477799 -47.99448412 126.02655637 -47.55322266 123.15112305 C-45.50036592 112.54158229 -45.50036592 112.54158229 -47.16723633 102.19360352 C-48.96051716 100.11897403 -50.79481657 98.6223302 -53 97 C-54.27775152 95.67493045 -55.53143183 94.32628372 -56.76171875 92.95703125 C-58.0690382 91.57431491 -59.37766689 90.19283541 -60.6875 88.8125 C-66.2311951 82.94927426 -71.74446571 77.06142155 -77.1940918 71.1105957 C-79.190415 68.93557258 -81.19559317 66.81261124 -83.328125 64.76953125 C-85 63 -85 63 -85 61 C-77.73348572 59.56355573 -70.46657387 58.12914145 -63.19914436 56.69733429 C-59.82478402 56.03246131 -56.45056584 55.36688368 -53.07666016 54.69970703 C-49.19995445 53.93313548 -45.32265227 53.16960825 -41.4453125 52.40625 C-40.23070343 52.16563843 -39.01609436 51.92502686 -37.76467896 51.67712402 C-36.08316238 51.34678162 -36.08316238 51.34678162 -34.36767578 51.00976562 C-33.37728302 50.81435181 -32.38689026 50.61893799 -31.3664856 50.41760254 C-29 50 -29 50 -27 50 C-26.59382446 48.93289795 -26.59382446 48.93289795 -26.17944336 47.84423828 C-24.98015016 44.95213194 -23.61016053 42.24999479 -22.12890625 39.4921875 C-21.27449951 37.90059814 -21.27449951 37.90059814 -20.40283203 36.27685547 C-19.79552246 35.15424316 -19.18821289 34.03163086 -18.5625 32.875 C-17.9422998 31.72531738 -17.32209961 30.57563477 -16.68310547 29.39111328 C-11.31187609 19.48124325 -5.73005398 9.7060098 0 0 Z " fill="#000000" transform="translate(255,175)"/>
</svg>
